<?xml version="1.0" encoding="iso-8859-1"?>
<!-- Uploaded to: SVG Repo, www.svgrepo.com, Generator: SVG Repo Mixer Tools -->
<svg version="1.1" id="Layer_1" xmlns="http://www.w3.org/2000/svg" xmlns:xlink="http://www.w3.org/1999/xlink" 
	 viewBox="0 0 512 512" xml:space="preserve">
<path style="fill:#85DC79;" d="M499.492,176.795C466.134,74.181,369.737,0,256,0C114.615,0,0,114.615,0,256
	c0,123.374,87.277,226.354,203.455,250.592L499.492,176.795z"/>
<path style="fill:#2DB37F;" d="M512,256c0-27.647-4.4-54.262-12.508-79.205l-78.761-78.76l-51.397,16.823l-6.367,43.386
	L69.009,302.661l89.043,89.043l-34.741,34.741l80.146,80.146C220.416,510.13,237.989,512,256,512C397.384,512,512,397.384,512,256z"
	/>
<polygon style="fill:#FFFFFF;" points="259.3,158.244 259.3,291.531 69.009,280.4 69.009,169.374 "/>
<g>
	<rect x="210.421" y="158.241" style="fill:#DDEFFB;" width="152.543" height="133.287"/>
	<polygon style="fill:#DDEFFB;" points="248.17,158.244 210.423,258.139 91.27,258.139 91.27,158.244 	"/>
</g>
<rect x="210.421" y="158.241" style="fill:#BCDEF7;" width="119.151" height="99.896"/>
<rect x="69.009" y="147.111" style="fill:#FFFFFF;" width="293.632" height="22.261"/>
<path style="fill:#243870;" d="M137.815,402.835l9.107,33.391c18.442,0,33.391-14.949,33.391-33.391s-14.949-33.391-33.391-33.391
	L137.815,402.835z"/>
<path style="fill:#3D4E9C;" d="M113.53,402.835c0,18.442,14.949,33.391,33.391,33.391v-66.783
	C128.48,369.444,113.53,384.394,113.53,402.835z"/>
<path style="fill:#243870;" d="M287.078,402.835l9.107,33.391c18.442,0,33.391-14.949,33.391-33.391s-14.949-33.391-33.391-33.391
	L287.078,402.835z"/>
<path style="fill:#3D4E9C;" d="M262.794,402.835c0,18.442,14.949,33.391,33.391,33.391v-66.783
	C277.743,369.444,262.794,384.394,262.794,402.835z"/>
<path style="fill:#243870;" d="M385.229,120.296h35.502V98.035h-35.502c-18.412,0-33.391,14.979-33.391,33.391v148.975H69.009
	v22.261h293.959c6.137,0,11.13,4.993,11.13,11.13s-4.993,11.13-11.13,11.13H113.53v22.261h249.438
	c18.412,0,33.391-14.979,33.391-33.391c0-14.51-9.306-26.881-22.261-31.476V131.426
	C374.098,125.289,379.091,120.296,385.229,120.296z"/>
</svg>