<?xml version="1.0" encoding="utf-8"?>
<!-- Uploaded to: SVG Repo, www.svgrepo.com, Generator: SVG Repo Mixer Tools -->
<svg fill="#000000" width="800px" height="800px" viewBox="0 0 32 32" version="1.1" xmlns="http://www.w3.org/2000/svg">
<title>address-book</title>
<path d="M23.016 1.25h-16.020c-1.518 0.002-2.748 1.232-2.75 2.75v24c0.002 1.518 1.232 2.748 2.75 2.75h16.021c1.518-0.002 2.748-1.232 2.75-2.75v-24c-0.002-1.518-1.232-2.748-2.75-2.75h-0zM24.266 28c-0.001 0.69-0.56 1.249-1.25 1.25h-16.021c-0.69-0.001-1.249-0.56-1.25-1.25v-24c0.001-0.69 0.56-1.249 1.25-1.25h16.021c0.69 0.001 1.249 0.56 1.25 1.25v0zM27.006 3.747c-0.414 0-0.75 0.336-0.75 0.75v0 5.006c0 0.414 0.336 0.75 0.75 0.75s0.75-0.336 0.75-0.75v0-5.006c-0-0.414-0.336-0.75-0.75-0.75v0zM27.006 12.75c-0.414 0-0.75 0.336-0.75 0.75v0 5c0 0.414 0.336 0.75 0.75 0.75s0.75-0.336 0.75-0.75v0-5c-0-0.414-0.336-0.75-0.75-0.75v0zM27.006 21.711c-0.414 0-0.75 0.336-0.75 0.75v0 5.078c0 0.414 0.336 0.75 0.75 0.75s0.75-0.336 0.75-0.75v0-5.078c-0-0.414-0.336-0.75-0.75-0.75v0zM15.005 15.93c2.1 0 3.802-1.702 3.802-3.802s-1.702-3.802-3.802-3.802c-2.1 0-3.802 1.702-3.802 3.802 0 0 0 0 0 0v0c0.002 2.099 1.703 3.8 3.802 3.802h0zM15.005 9.826c1.271 0 2.302 1.031 2.302 2.302s-1.031 2.302-2.302 2.302c-1.271 0-2.302-1.030-2.302-2.302v0c0.001-1.271 1.031-2.301 2.302-2.302h0zM15.005 17.379c-3.26 0.014-5.984 2.29-6.686 5.338l-0.009 0.046c-0.011 0.048-0.017 0.103-0.017 0.16 0 0.414 0.336 0.75 0.75 0.75 0.357 0 0.656-0.25 0.731-0.585l0.001-0.005c0.547-2.423 2.681-4.206 5.231-4.206s4.684 1.783 5.224 4.17l0.007 0.036c0.076 0.34 0.374 0.59 0.732 0.59 0 0 0.001 0 0.001 0h-0c0.057-0 0.112-0.007 0.165-0.019l-0.005 0.001c0.34-0.076 0.59-0.375 0.59-0.733 0-0.057-0.006-0.112-0.018-0.165l0.001 0.005c-0.711-3.095-3.436-5.371-6.695-5.385h-0.002z"></path>
</svg>