<!DOCTYPE svg PUBLIC "-//W3C//DTD SVG 1.1//EN" "http://www.w3.org/Graphics/SVG/1.1/DTD/svg11.dtd">
<!-- Uploaded to: SVG Repo, www.svgrepo.com, Transformed by: SVG Repo Mixer Tools -->
<svg version="1.1" id="_x32_" xmlns="http://www.w3.org/2000/svg" xmlns:xlink="http://www.w3.org/1999/xlink" width="800px" height="800px" viewBox="0 0 512 512" xml:space="preserve" fill="#000000">
<g id="SVGRepo_bgCarrier" stroke-width="0"/>
<g id="SVGRepo_tracerCarrier" stroke-linecap="round" stroke-linejoin="round"/>
<g id="SVGRepo_iconCarrier"> <style type="text/css">  .st0{fill:#10aa0e;}  </style> <g> <path class="st0" d="M256,0C150.047,0,64.172,85.875,64.172,191.828v86.766c0.031,37.875,10.828,81.609,38.688,116.688 c13.953,17.484,32.203,32.688,55.203,43.375c22.969,10.719,50.578,16.875,83.063,16.875c36.719-0.031,73.469-15.938,101.172-44.094 c27.703-28.125,46.266-68.813,46.234-117.781V191.828C388.5,118.719,329.109,59.313,256,59.281 c-73.125,0.031-132.516,59.438-132.531,132.547v102c0,13.141,3.281,25.953,8.906,37.719c8.453,17.641,22.094,33.016,38.688,44.188 c16.594,11.141,36.281,18.125,56.875,18.141c19.219,0.016,35.516-3.453,49.047-9.813c20.359-9.5,33.859-25.594,41.672-43.469 c7.875-17.906,10.563-37.625,10.578-56.359v-92.406c-0.016-40.422-32.813-73.219-73.234-73.234 c-40.406,0.016-73.219,32.813-73.234,73.234v102c-0.016,12,4.938,22.984,12.828,30.797c7.875,7.844,18.828,12.734,30.813,12.734 c24.047-0.016,43.516-19.5,43.531-43.531v-102c0-6.234-5.063-11.297-11.281-11.297c-6.266,0-11.313,5.063-11.313,11.297v102 c0,5.828-2.313,10.984-6.125,14.797c-3.828,3.813-9,6.141-14.813,6.141s-11.047-2.328-14.891-6.156s-6.156-8.984-6.172-14.781v-102 c0.016-13.984,5.656-26.594,14.859-35.797c9.203-9.188,21.813-14.844,35.797-14.859c13.969,0.016,26.578,5.672,35.781,14.859 c9.203,9.203,14.859,21.813,14.859,35.797v92.406c0,11.031-1.094,22.172-3.672,32.484c-1.922,7.75-4.672,15-8.359,21.484 c-5.547,9.734-13.031,17.734-23.578,23.547c-10.578,5.813-24.469,9.531-43.094,9.563c-20.516,0.031-41.313-9.563-56.781-24.391 c-7.719-7.391-14.047-16.016-18.391-25.109c-4.359-9.109-6.703-18.656-6.703-27.984v-102c0-30.328,12.313-57.766,32.234-77.703 c19.953-19.938,47.375-32.25,77.703-32.25s57.75,12.313,77.703,32.25c19.922,19.938,32.234,47.375,32.234,77.703v101.828 c-0.031,43.25-16.109,77.859-39.75,101.953c-23.641,24.078-54.938,37.359-85.063,37.328c-29.641,0-53.813-5.594-73.531-14.766 c-29.547-13.781-49.5-35.734-62.422-60.875c-12.875-25.141-18.422-53.5-18.406-78.703v-86.766 c0-46.766,18.906-89.016,49.563-119.672S209.234,22.594,256,22.594S345,41.5,375.656,72.156s49.563,72.906,49.578,119.672v110.297 c0.047,46.781-19.125,94.047-50.063,129.219c-15.453,17.594-33.797,32.156-53.969,42.266 c-20.188,10.109-42.156,15.797-65.203,15.797c-6.234,0-11.297,5.063-11.297,11.313c0,6.219,5.063,11.281,11.297,11.281 c26.797,0,52.313-6.656,75.328-18.219c34.547-17.313,63.531-45.516,84.016-79.156c20.469-33.625,32.469-72.828,32.484-112.5 V191.828C447.813,85.875,361.938,0,256,0z"/> </g> </g>
</svg>