<?xml version="1.0" encoding="utf-8"?><!-- Uploaded to: SVG Repo, www.svgrepo.com, Generator: SVG Repo Mixer Tools -->
<svg width="800px" height="800px" viewBox="0 0 24 24" fill="none" xmlns="http://www.w3.org/2000/svg">
<path d="M14 5.6C14 5.03995 14 4.75992 14.109 4.54601C14.2049 4.35785 14.3578 4.20487 14.546 4.10899C14.7599 4 15.0399 4 15.6 4H18.4C18.9601 4 19.2401 4 19.454 4.10899C19.6422 4.20487 19.7951 4.35785 19.891 4.54601C20 4.75992 20 5.03995 20 5.6V8.4C20 8.96005 20 9.24008 19.891 9.45399C19.7951 9.64215 19.6422 9.79513 19.454 9.89101C19.2401 10 18.9601 10 18.4 10H15.6C15.0399 10 14.7599 10 14.546 9.89101C14.3578 9.79513 14.2049 9.64215 14.109 9.45399C14 9.24008 14 8.96005 14 8.4V5.6Z" stroke="#000000" stroke-width="2" stroke-linecap="round" stroke-linejoin="round"/>
<path d="M4 5.6C4 5.03995 4 4.75992 4.10899 4.54601C4.20487 4.35785 4.35785 4.20487 4.54601 4.10899C4.75992 4 5.03995 4 5.6 4H8.4C8.96005 4 9.24008 4 9.45399 4.10899C9.64215 4.20487 9.79513 4.35785 9.89101 4.54601C10 4.75992 10 5.03995 10 5.6V8.4C10 8.96005 10 9.24008 9.89101 9.45399C9.79513 9.64215 9.64215 9.79513 9.45399 9.89101C9.24008 10 8.96005 10 8.4 10H5.6C5.03995 10 4.75992 10 4.54601 9.89101C4.35785 9.79513 4.20487 9.64215 4.10899 9.45399C4 9.24008 4 8.96005 4 8.4V5.6Z" stroke="#000000" stroke-width="2" stroke-linecap="round" stroke-linejoin="round"/>
<path d="M4 15.6C4 15.0399 4 14.7599 4.10899 14.546C4.20487 14.3578 4.35785 14.2049 4.54601 14.109C4.75992 14 5.03995 14 5.6 14H8.4C8.96005 14 9.24008 14 9.45399 14.109C9.64215 14.2049 9.79513 14.3578 9.89101 14.546C10 14.7599 10 15.0399 10 15.6V18.4C10 18.9601 10 19.2401 9.89101 19.454C9.79513 19.6422 9.64215 19.7951 9.45399 19.891C9.24008 20 8.96005 20 8.4 20H5.6C5.03995 20 4.75992 20 4.54601 19.891C4.35785 19.7951 4.20487 19.6422 4.10899 19.454C4 19.2401 4 18.9601 4 18.4V15.6Z" stroke="#000000" stroke-width="2" stroke-linecap="round" stroke-linejoin="round"/>
<path d="M14 15.6C14 15.0399 14 14.7599 14.109 14.546C14.2049 14.3578 14.3578 14.2049 14.546 14.109C14.7599 14 15.0399 14 15.6 14H18.4C18.9601 14 19.2401 14 19.454 14.109C19.6422 14.2049 19.7951 14.3578 19.891 14.546C20 14.7599 20 15.0399 20 15.6V18.4C20 18.9601 20 19.2401 19.891 19.454C19.7951 19.6422 19.6422 19.7951 19.454 19.891C19.2401 20 18.9601 20 18.4 20H15.6C15.0399 20 14.7599 20 14.546 19.891C14.3578 19.7951 14.2049 19.6422 14.109 19.454C14 19.2401 14 18.9601 14 18.4V15.6Z" stroke="#000000" stroke-width="2" stroke-linecap="round" stroke-linejoin="round"/>
</svg>